<?xml version="1.0" encoding="UTF-8"?>
<svg xmlns="http://www.w3.org/2000/svg" xmlns:xlink="http://www.w3.org/1999/xlink" width="758.1pt" height="324.8pt" viewBox="0 0 758.1 324.8" version="1.1">
<g id="surface1">
<path style="fill:none;stroke-width:2.16;stroke-linecap:butt;stroke-linejoin:miter;stroke:rgb(10.594177%,9.812927%,9.423828%);stroke-opacity:1;stroke-miterlimit:4;" d="M 1.09375 1.515625 L 7580.429688 1.515625 L 7580.429688 3247.609375 L 1.09375 3247.609375 Z M 1.09375 1.515625 " transform="matrix(0.1,0,0,-0.1,0,324.8)"/>
<path style=" stroke:none;fill-rule:evenodd;fill:rgb(95.701599%,57.226563%,0%);fill-opacity:1;" d="M 201.613281 125.90625 C 201.648438 125.90625 201.683594 125.910156 201.71875 125.925781 C 201.730469 125.914063 201.671875 125.90625 201.613281 125.90625 Z M 201.613281 125.90625 "/>
<path style=" stroke:none;fill-rule:evenodd;fill:rgb(97.264099%,65.039063%,0%);fill-opacity:1;" d="M 155.359375 174.058594 C 139.234375 184.347656 118.382813 195.085938 102.066406 199.941406 C 86.292969 204.636719 73.921875 200.769531 72.09375 186.621094 C 69.542969 166.921875 77.941406 137.726563 88.730469 119.246094 C 95.757813 107.222656 103.304688 102.371094 119.027344 102.730469 C 126.902344 102.910156 137.121094 106.109375 148.183594 109.636719 C 148.292969 109.671875 148.304688 109.8125 148.261719 109.867188 C 143.621094 115.710938 142.667969 122.597656 145.113281 127.839844 C 145.175781 127.976563 145.046875 128.078125 144.941406 128.046875 C 136.09375 125.015625 126.96875 123.160156 120.621094 122.386719 C 114.667969 121.660156 110.523438 123.4375 107.410156 128.410156 C 99.226563 141.492188 94.128906 166.199219 96.394531 180.253906 C 97.15625 184.96875 99.382813 187.121094 105.679688 185.445313 C 122.878906 180.871094 155.617188 161.324219 167.621094 149.648438 C 170.585938 146.761719 172.703125 143.035156 169.496094 140.210938 C 168.101563 138.980469 156.832031 132.460938 156.496094 132.238281 C 148.847656 127.148438 146.601563 120.433594 154.113281 111.523438 C 155.222656 110.203125 156.550781 108.835938 158.105469 107.414063 C 161.683594 104.152344 172.578125 96.609375 185.328125 89.269531 C 196.527344 82.824219 209.160156 76.539063 219.535156 73.453125 C 231.820313 69.796875 241.460938 70.828125 242.886719 81.847656 C 244.871094 97.195313 239.347656 122.597656 230.941406 136.992188 C 225.46875 146.363281 219.277344 152.164063 207.339844 149.859375 C 203.996094 149.21875 199.1875 147.796875 194.269531 146.304688 C 194.144531 146.269531 194.152344 146.144531 194.1875 146.09375 C 198.289063 139.527344 198.5 133.3125 195.46875 128.09375 C 195.390625 127.960938 195.507813 127.828125 195.632813 127.871094 C 202.375 130.246094 209.566406 131.886719 214.421875 132.476563 C 218.496094 132.972656 221.332031 131.757813 223.457031 128.355469 C 229.058594 119.40625 232.542969 102.511719 230.992188 92.898438 C 230.472656 89.671875 228.949219 88.199219 224.640625 89.347656 C 212.882813 92.476563 190.488281 105.84375 182.28125 113.828125 C 180.25 115.804688 178.804688 118.355469 180.996094 120.285156 C 181.652344 120.859375 183.484375 122.164063 183.484375 122.164063 C 191.941406 127.914063 195.027344 135.304688 188.921875 144.679688 C 184.359375 151.683594 169.804688 164.84375 155.359375 174.058594 Z M 155.359375 174.058594 "/>
<path style=" stroke:none;fill-rule:evenodd;fill:rgb(0%,18.821716%,41.967773%);fill-opacity:1;" d="M 522.097656 201.78125 L 510.414063 201.78125 C 508.226563 201.78125 506.183594 203.300781 505.421875 205.34375 C 505.402344 205.390625 505.355469 205.425781 505.300781 205.425781 C 505.238281 205.425781 505.1875 205.378906 505.175781 205.296875 C 504.964844 203.28125 503.355469 201.78125 501.1875 201.78125 L 498.71875 201.78125 C 496.171875 201.78125 493.816406 203.84375 493.460938 206.394531 L 487.53125 248.566406 C 487.175781 251.113281 488.949219 253.179688 491.496094 253.179688 L 493.964844 253.179688 C 496.511719 253.179688 498.867188 251.113281 499.226563 248.566406 L 503.820313 215.878906 C 504.035156 214.351563 505.449219 213.113281 506.976563 213.113281 L 520.503906 213.113281 C 523.054688 213.113281 525.410156 211.046875 525.765625 208.496094 L 526.0625 206.394531 C 526.421875 203.84375 524.644531 201.78125 522.097656 201.78125 Z M 425.707031 221.945313 L 409.515625 221.945313 C 407.984375 221.945313 406.921875 220.703125 407.136719 219.179688 L 407.636719 215.621094 C 407.851563 214.089844 409.265625 212.851563 410.792969 212.851563 L 428.625 212.851563 C 431.171875 212.851563 433.527344 210.789063 433.886719 208.238281 L 434.148438 206.394531 C 434.503906 203.84375 432.730469 201.78125 430.179688 201.78125 L 409.582031 201.78125 C 403.46875 201.78125 397.816406 206.738281 396.957031 212.851563 L 395.675781 221.945313 C 394.816406 228.058594 399.078125 233.015625 405.195313 233.015625 L 421.382813 233.015625 C 422.910156 233.015625 423.976563 234.253906 423.761719 235.78125 L 423.261719 239.339844 C 423.046875 240.867188 421.632813 242.109375 420.105469 242.109375 L 397.515625 242.105469 C 394.96875 242.105469 392.613281 244.167969 392.257813 246.722656 L 391.996094 248.566406 C 391.640625 251.113281 393.414063 253.179688 395.960938 253.179688 L 421.316406 253.179688 C 427.410156 253.179688 433.042969 248.261719 433.941406 242.109375 L 435.222656 233.015625 C 436.082031 226.902344 431.820313 221.945313 425.707031 221.945313 Z M 339.570313 201.78125 L 327.882813 201.78125 C 325.695313 201.78125 323.652344 203.300781 322.890625 205.34375 C 322.871094 205.390625 322.824219 205.425781 322.773438 205.425781 C 322.707031 205.425781 322.65625 205.378906 322.644531 205.296875 C 322.433594 203.28125 320.824219 201.78125 318.65625 201.78125 L 316.1875 201.78125 C 313.640625 201.78125 311.285156 203.84375 310.929688 206.394531 L 305.003906 248.566406 C 304.644531 251.113281 306.417969 253.179688 308.964844 253.179688 L 311.433594 253.179688 C 313.984375 253.179688 316.339844 251.113281 316.695313 248.566406 L 321.289063 215.878906 C 321.503906 214.351563 322.917969 213.113281 324.445313 213.113281 L 337.976563 213.113281 C 340.523438 213.113281 342.878906 211.046875 343.238281 208.496094 L 343.535156 206.394531 C 343.890625 203.84375 342.117188 201.78125 339.570313 201.78125 Z M 305.773438 206.394531 C 306.132813 203.84375 304.355469 201.78125 301.808594 201.78125 L 280.738281 201.78125 C 274.621094 201.78125 268.96875 206.738281 268.109375 212.851563 L 264 242.105469 C 263.136719 248.222656 267.398438 253.179688 273.511719 253.179688 L 294.660156 253.179688 C 297.210938 253.179688 299.566406 251.113281 299.921875 248.566406 L 300.183594 246.722656 C 300.542969 244.167969 298.765625 242.105469 296.21875 242.105469 L 277.835938 242.105469 C 276.308594 242.105469 275.242188 240.867188 275.457031 239.339844 L 278.792969 215.621094 C 279.007813 214.089844 280.417969 212.851563 281.949219 212.851563 L 300.253906 212.851563 C 302.800781 212.851563 305.15625 210.789063 305.515625 208.238281 Z M 238.140625 181.769531 L 235.671875 181.769531 C 233.976563 181.769531 232.367188 182.683594 231.359375 184.035156 L 203.917969 224.746094 C 203.886719 224.789063 203.824219 224.824219 203.769531 224.824219 C 203.707031 224.824219 203.660156 224.789063 203.640625 224.742188 L 187.640625 183.925781 C 187.007813 182.632813 185.6875 181.769531 184.039063 181.769531 L 181.574219 181.769531 C 179.023438 181.769531 176.671875 183.835938 176.3125 186.382813 L 167.570313 248.566406 C 167.214844 251.113281 168.988281 253.179688 171.539063 253.179688 L 174.007813 253.179688 C 176.554688 253.179688 178.910156 251.113281 179.265625 248.566406 L 184.730469 210.039063 C 184.742188 209.953125 184.824219 209.882813 184.910156 209.882813 C 184.96875 209.882813 185.019531 209.914063 185.039063 209.960938 L 196.769531 239.949219 C 197.488281 241.785156 199.171875 242.730469 201.339844 242.730469 C 203.511719 242.730469 205.457031 241.785156 206.691406 239.949219 L 226.828125 209.996094 C 226.871094 209.9375 226.925781 209.882813 227 209.882813 C 227.085938 209.882813 227.148438 209.960938 227.132813 210.058594 L 221.671875 248.566406 C 221.3125 251.113281 223.085938 253.179688 225.636719 253.179688 L 228.105469 253.179688 C 230.652344 253.179688 233.007813 251.113281 233.367188 248.566406 L 242.105469 186.382813 C 242.460938 183.835938 240.6875 181.769531 238.140625 181.769531 Z M 259.335938 181.769531 L 256.703125 181.769531 C 254.15625 181.769531 251.800781 183.835938 251.445313 186.382813 L 250.515625 192.992188 C 250.15625 195.539063 251.933594 197.605469 254.480469 197.605469 L 257.109375 197.605469 C 259.65625 197.605469 262.015625 195.539063 262.371094 192.992188 L 263.296875 186.382813 C 263.65625 183.835938 261.882813 181.769531 259.335938 181.769531 Z M 256.523438 201.78125 L 253.894531 201.78125 C 251.347656 201.78125 248.992188 203.84375 248.632813 206.394531 L 242.707031 248.566406 C 242.347656 251.113281 244.125 253.179688 246.667969 253.179688 L 249.300781 253.179688 C 251.847656 253.179688 254.203125 251.113281 254.5625 248.566406 L 260.488281 206.394531 C 260.847656 203.84375 259.070313 201.78125 256.523438 201.78125 Z M 477.796875 201.78125 L 457.457031 201.78125 C 451.34375 201.78125 445.6875 206.738281 444.828125 212.851563 L 440.71875 242.109375 C 439.859375 248.222656 444.117188 253.179688 450.234375 253.179688 L 471.496094 253.179688 C 474.046875 253.179688 476.398438 251.113281 476.757813 248.566406 L 477.019531 246.722656 C 477.375 244.167969 475.601563 242.105469 473.054688 242.105469 L 454.5625 242.109375 C 453.035156 242.109375 451.972656 240.867188 452.1875 239.339844 L 452.6875 235.78125 C 452.902344 234.253906 454.316406 233.015625 455.84375 233.015625 L 473.410156 233.015625 C 479.523438 233.015625 485.175781 228.058594 486.035156 221.945313 L 487.3125 212.851563 C 488.171875 206.738281 483.914063 201.78125 477.796875 201.78125 Z M 475.359375 219.179688 C 475.148438 220.703125 473.734375 221.945313 472.207031 221.945313 L 457.398438 221.945313 C 455.871094 221.945313 454.804688 220.703125 455.019531 219.179688 L 455.519531 215.621094 C 455.734375 214.089844 457.148438 212.851563 458.675781 212.851563 L 473.484375 212.851563 C 475.011719 212.851563 476.078125 214.089844 475.859375 215.621094 Z M 593.226563 181.769531 L 590.59375 181.769531 C 588.050781 181.769531 585.691406 183.835938 585.332031 186.382813 L 584.40625 192.992188 C 584.046875 195.539063 585.824219 197.605469 588.371094 197.605469 L 591 197.605469 C 593.546875 197.605469 595.902344 195.539063 596.261719 192.992188 L 597.191406 186.382813 C 597.546875 183.835938 595.773438 181.769531 593.226563 181.769531 Z M 590.414063 201.78125 L 587.785156 201.78125 C 585.234375 201.78125 582.878906 203.84375 582.523438 206.394531 L 576.597656 248.566406 C 576.238281 251.113281 578.015625 253.179688 580.5625 253.179688 L 583.191406 253.179688 C 585.738281 253.179688 588.09375 251.113281 588.449219 248.566406 L 594.378906 206.394531 C 594.734375 203.84375 592.960938 201.78125 590.414063 201.78125 Z M 635.691406 201.78125 L 614.617188 201.78125 C 608.503906 201.78125 602.851563 206.738281 601.992188 212.851563 L 597.878906 242.105469 C 597.019531 248.222656 601.28125 253.179688 607.394531 253.179688 L 628.542969 253.179688 C 631.09375 253.179688 633.445313 251.113281 633.804688 248.566406 L 634.066406 246.722656 C 634.421875 244.167969 632.648438 242.105469 630.101563 242.105469 L 611.71875 242.105469 C 610.191406 242.105469 609.125 240.867188 609.339844 239.339844 L 612.671875 215.621094 C 612.886719 214.089844 614.300781 212.851563 615.832031 212.851563 L 634.136719 212.851563 C 636.683594 212.851563 639.039063 210.789063 639.398438 208.238281 L 639.65625 206.394531 C 640.015625 203.84375 638.238281 201.78125 635.691406 201.78125 Z M 573.050781 201.78125 L 571.050781 201.78125 C 568.929688 201.78125 566.9375 203.21875 566.125 205.164063 L 549.859375 237.171875 C 549.828125 237.238281 549.761719 237.28125 549.691406 237.28125 C 549.621094 237.28125 549.574219 237.238281 549.558594 237.179688 L 542.371094 205.164063 C 542.105469 203.210938 540.523438 201.78125 538.402344 201.78125 L 536.386719 201.78125 C 533.839844 201.78125 531.484375 203.84375 531.125 206.394531 C 531.019531 207.148438 531.101563 207.855469 531.332031 208.484375 L 540.515625 249.371094 C 540.921875 251.601563 542.78125 253.214844 545.25 253.214844 C 546.078125 253.214844 549.015625 253.179688 549.816406 253.179688 C 552.195313 253.179688 554.433594 251.671875 555.546875 249.496094 L 576.351563 208.277344 C 576.691406 207.703125 576.921875 207.066406 577.019531 206.394531 C 577.375 203.84375 575.601563 201.78125 573.050781 201.78125 Z M 676.910156 201.78125 L 656.566406 201.78125 C 650.453125 201.78125 644.800781 206.738281 643.9375 212.851563 L 639.828125 242.109375 C 638.96875 248.222656 643.230469 253.179688 649.34375 253.179688 L 670.609375 253.179688 C 673.15625 253.179688 675.511719 251.113281 675.867188 248.566406 L 676.128906 246.722656 C 676.484375 244.167969 674.710938 242.105469 672.160156 242.105469 L 653.671875 242.109375 C 652.148438 242.109375 651.078125 240.867188 651.296875 239.339844 L 651.796875 235.78125 C 652.011719 234.253906 653.425781 233.015625 654.953125 233.015625 L 672.515625 233.015625 C 678.632813 233.015625 684.285156 228.058594 685.144531 221.945313 L 686.421875 212.851563 C 687.28125 206.738281 683.023438 201.78125 676.910156 201.78125 Z M 674.472656 219.179688 C 674.257813 220.703125 672.84375 221.945313 671.316406 221.945313 L 656.507813 221.945313 C 654.980469 221.945313 653.914063 220.703125 654.128906 219.179688 L 654.628906 215.621094 C 654.84375 214.089844 656.257813 212.851563 657.785156 212.851563 L 672.59375 212.851563 C 674.121094 212.851563 675.1875 214.089844 674.972656 215.621094 Z M 380.640625 201.78125 L 360.300781 201.78125 C 354.1875 201.78125 348.53125 206.738281 347.671875 212.851563 L 343.5625 242.105469 C 342.703125 248.222656 346.960938 253.179688 353.078125 253.179688 L 373.417969 253.179688 C 379.53125 253.179688 385.1875 248.222656 386.042969 242.105469 L 390.15625 212.851563 C 391.015625 206.738281 386.757813 201.78125 380.640625 201.78125 Z M 375.363281 239.339844 C 375.148438 240.867188 373.738281 242.105469 372.207031 242.105469 L 357.398438 242.105469 C 355.871094 242.105469 354.804688 240.867188 355.023438 239.339844 L 358.355469 215.621094 C 358.570313 214.089844 359.980469 212.851563 361.511719 212.851563 L 376.316406 212.851563 C 377.847656 212.851563 378.910156 214.089844 378.699219 215.621094 Z M 375.363281 239.339844 "/>
</g>
</svg>
